<?xml version="1.0" encoding="UTF-8"?>
<svg width="1200pt" height="1200pt" version="1.1" viewBox="0 0 1200 1200" xmlns="http://www.w3.org/2000/svg">
 <path d="m730.92 61.379c47.316 27.312-94.738 273.35-269.7 576.41-142.26 246.39-294.04 437.04-345.82 499.71-1.5859 1.8828-4.2969 2.3516-6.4336 1.1172-2.125-1.2227-3.0703-3.8047-2.2422-6.1328 28.379-76.176 117.61-302.94 259.86-549.34 174.97-303.05 317.03-549.09 364.33-521.77zm-41.293 71.52c10.871 6.2891-4.7891 53.797-34.945 106.03-30.168 52.234-63.48 89.555-74.352 83.281-10.871-6.2773 4.7891-53.785 34.945-106.03 30.168-52.234 63.48-89.555 74.352-83.281z" fill-rule="evenodd"/>
 <path d="m575.17 220.67c-16.414-7.6211-32.578-15.996-49.055-24.023-35.941-17.473-72.121-35.305-111.35-43.68-16.848-3.6016-34.199-4.3086-51.422-1.5703-33.289 5.2812-64.969 20.953-89.914 43.043-1.5469 1.3672-3.0859 2.7461-4.5117 4.2227 0 0-1.5977 1.5234-2.832 2.3281-6.1211 3.9727-14.867 3.2266-20.219-1.9688-5.293-5.125-6.3945-13.859-2.5781-20.148 2.1133-3.4805 5.4375-6.0859 8.543-8.832 34.738-30.758 79.871-50.508 126.25-52.922 2.6523-0.13281 5.3047-0.20313 7.9688-0.19141 33.336 0.22656 65.461 11.23 96.215 23.879 37.691 15.492 73.691 35.449 110.62 52.008-4.0078 5.7461-8.1953 12.121-12.371 18.91-1.8594 3.0234-3.6484 6.0117-5.3398 8.9414z" fill-rule="evenodd"/>
 <path d="m625.99 206.14c5.4375 1.8594 26.688 7.8594 31.812 9.1094 48.816 11.891 99.742 13.934 150.43 6.3359 56.004-8.3984 111.06-27.707 167.66-23.293 24 1.8711 47.652 7.5352 69.516 18 32.375 15.504 54.672 47.746 68.102 80.039 16.477 39.602 23.062 82.871 24.504 126 3.2148 95.652-18.863 191.79-58.309 279.8-43.234 96.492-109.11 182.81-191.59 248.38-5.6875 4.5234-11.461 8.9414-17.305 13.273-38.605 28.621-84.109 49.211-132.7 52.066-51.457 3.0117-103.67-13.402-147.07-40.883-29.328-18.562-55.379-44.148-68.629-77.148-12.758-31.766-12.07-68.016-3.6953-101.45 5.1484-20.605 11.965-40.801 20.387-60.348 15.719-36.48 38.398-70.621 69.648-95.578 20.902-16.691 45.191-28.738 70.297-38.352 28.691-10.992 59.914-17.867 83.629-39.133 14.34-12.852 23.914-30.312 31.824-47.93l1.8594-3.1328c0.83984-0.88672 1.5859-1.8711 2.5078-2.6523 5.5781-4.6914 14.352-5.0273 20.305-0.52734 4.9062 3.6953 7.3555 10.234 6.1562 16.199-0.71875 3.625-2.6172 6.8398-4.2109 10.188-10.465 21.926-24 42.672-43.32 57.637-29.902 23.16-68.734 31.332-102.61 46.078-28.68 12.48-54.852 30.91-74.484 55.715-23.137 29.23-37.656 64.586-47.914 100.62-7.6094 26.746-11.195 55.367-3.1211 82.02 10.152 33.551 39.156 59.543 69.098 76.402 47.508 26.734 103.69 38.293 157.5 22.883 34.199-9.8047 64.355-29.664 93.266-52.812 112.98-90.457 192-221.48 222.73-363.27 12.098-55.801 17.074-113.41 10.871-169.79-3.6836-33.602-11.258-67.297-26.809-96.973-10.727-20.473-25.969-39.602-46.945-48.852-28.754-12.684-61.094-16.5-92.762-13.453-42.348 4.0781-83.629 16.621-125.18 22.715-61.164 8.9766-123.88 4.4766-184.45-13.441 0 0-13.379-4.1523-16.906-5.4375 2.1484-4.4023 4.5-8.9414 7.0195-13.57 2.9648-5.4492 5.9414-10.645 8.8906-15.457z" fill-rule="evenodd"/>
</svg>
